<?xml version="1.0" encoding="UTF-8" standalone="no"?>
<svg
   xmlns:dc="http://purl.org/dc/elements/1.1/"
   xmlns:cc="http://creativecommons.org/ns#"
   xmlns:rdf="http://www.w3.org/1999/02/22-rdf-syntax-ns#"
   xmlns:svg="http://www.w3.org/2000/svg"
   xmlns="http://www.w3.org/2000/svg"
   viewBox="0 0 9000 1000"
   height="1000"
   width="9000"
   id="svg10"
   version="1.1">
  <metadata
     id="metadata16">
    <rdf:RDF>
      <cc:Work
         rdf:about="">
        <dc:format>image/svg+xml</dc:format>
        <dc:type
           rdf:resource="http://purl.org/dc/dcmitype/StillImage" />
        <dc:title></dc:title>
      </cc:Work>
    </rdf:RDF>
  </metadata>
  <defs
     id="defs14" />
  <path
     id="path20"
     d="m 0.66059894,906.19495 12.55138006,5.28479 5.94539,-3.96359 10.239284,4.29389 19.817968,-8.58779 14.202878,7.59689 33.690546,-4.29389 20.478565,-0.3303 24.44216,4.29389 24.77246,0.3303 38.97534,-10.89988 41.61773,-8.58779 70.35379,-1.32119 62.7569,1.32119 H 1027.892 l 19.8179,15.19378 84.2264,32.36935 76.9598,18.49677 23.4512,0.99089 25.1028,-11.56048 16.8453,-0.3303 15.1937,-9.57868 15.5241,-0.3303 9.2484,5.28479 11.2302,-2.31209 4.6242,3.63329 15.1938,-5.94539 26.0936,13.21198 22.1301,2.31209 37.3238,-15.52407 44.5904,-20.80887 23.4513,1.9818 63.0872,1.6515 40.2965,-9.24839 17.4351,-13.87445 55.5865,-14.48053 16.8161,8.17449 70.0671,-0.70067 41.1061,-4.20402 27.0926,6.30604 7.9409,-1.16779 41.3396,23.58926 16.5826,-1.40134 15.6483,-7.94094 23.1221,3.03624 90.6201,-6.07248 24.9906,6.07248 20.553,-0.70067 32.2309,-2.56913 24.2899,5.60537 40.639,16.11543 31.5302,-1.86845 29.1946,14.24697 63.2939,6.07248 90.8537,7.70738 71.9355,-4.67114 35.5007,-4.43758 h 24.9906 l 22.8886,-3.2698 14.9476,-2.56912 20.7866,4.20402 17.7503,1.86846 9.1088,-2.10201 10.0429,0.23355 27.7933,-5.37181 24.0564,-6.07248 52.7839,-18.451 86.416,-46.7114 157.4175,-116.07783 165.8254,-112.10736 6.0725,2.10202 -1.6349,10.51006 -10.0429,152.97983 -1.4014,169.79594 -1.0866,27.05254 354.0811,-2.9727 -14.8635,-359.03552 58.463,32.03905 45.9116,26.42395 66.0599,50.86612 129.1471,95.12625 103.3837,69.69319 119.8987,35.34204 39.3057,-4.62419 29.7269,-3.63329 40.9572,8.25748 139.056,3.303 45.5814,-1.3212 26.4239,-7.59689 27.0846,3.6333 12.2211,-6.60599 h 19.1573 l 22.7907,-12.22108 59.1236,-7.92719 38.645,-12.88168 111.311,1.6515 81.9142,-1.9818 32.6997,11.23018 25.433,-11.56048 40.2966,-17.50587 40.2965,4.62419 44.5904,-1.3212 57.4721,-4.62419 56.8116,11.56048 21.1391,16.51498 24.7725,-1.3212 7.5969,7.26659 h 60.1145 l 33.6905,-2.3121 77.2901,36.66324 32.039,-5.61509 14.8635,-13.21198 25.7634,5.28479 18.4968,-4.62419 34.3511,11.56048 44.9207,10.23929 41.6178,-5.6151 53.5085,-13.54227 51.5267,-19.15737 58.7933,-2.3121 52.1873,-3.30299 35.0118,-6.27569 61.1054,11.23018 3.6333,28.07545 -9.2484,55.82062 272.8273,-4.2939 4.9545,-69.36289 -6.9363,-25.76336 25.1028,-4.95449 105.0352,-7.92719 241.4489,-6.60599 30.0573,-16.51497 39.3056,0.6606 29.3967,19.15737 395.0382,2.64239 28.736,16.51498 34.0209,-2.3121 48.2237,20.47857 36.3329,0.6606 21.7998,15.19377 62.7569,2.9727 54.8297,9.24838 172.7466,-10.56958 124.5229,-2.64239 98.4293,-37.32385 75.6385,-47.89342 59.7842,-45.58133 62.7569,-43.26923 52.1874,-43.92983 68.0417,-48.55402 12.5513,-2.64239 6.606,-6.27569 8.9181,-5.2848 41.6177,-22.79066 7.2666,-0.9909 -7.2666,367.29302 796.0218,-2.9727 -2.9727,-85.54756 32.6996,-0.9909 23.4513,-10.89988 12.8817,1.32119 31.7087,11.56048 25.4331,-5.28479 16.8452,3.9636 26.0937,-3.6333 26.0937,8.58779 23.4512,-0.6606 27.4149,12.88168 36.6632,7.92719 0.3303,-610.72373 11.8908,-1.3212 0.6606,686.36233 -9012.2210947,-10.2393 -0.660599,-419.81063 6.27569,0.33029 -0.3302995,319.72989 z"
     style="fill:none;stroke:#000000;stroke-width:1px;stroke-linecap:butt;stroke-linejoin:miter;stroke-opacity:1" />
</svg>
