<?xml version="1.0" encoding="UTF-8" standalone="no"?>
<!-- Created with Inkscape (http://www.inkscape.org/) -->

<svg
   xmlns:dc="http://purl.org/dc/elements/1.1/"
   xmlns:cc="http://creativecommons.org/ns#"
   xmlns:rdf="http://www.w3.org/1999/02/22-rdf-syntax-ns#"
   xmlns:svg="http://www.w3.org/2000/svg"
   xmlns="http://www.w3.org/2000/svg"
   xmlns:sodipodi="http://sodipodi.sourceforge.net/DTD/sodipodi-0.dtd"
   xmlns:inkscape="http://www.inkscape.org/namespaces/inkscape"
   version="1.1"
   id="svg22"
   width="9000"
   height="2500"
   viewBox="0 0 9000 2500"
   sodipodi:docname="levelfour.svg"
   inkscape:version="0.92.1 r15371">
  <metadata
     id="metadata28">
    <rdf:RDF>
      <cc:Work
         rdf:about="">
        <dc:format>image/svg+xml</dc:format>
        <dc:type
           rdf:resource="http://purl.org/dc/dcmitype/StillImage" />
      </cc:Work>
    </rdf:RDF>
  </metadata>
  <defs
     id="defs26" />
  <sodipodi:namedview
     pagecolor="#ffffff"
     bordercolor="#666666"
     borderopacity="1"
     objecttolerance="10"
     gridtolerance="10"
     guidetolerance="10"
     inkscape:pageopacity="0"
     inkscape:pageshadow="2"
     inkscape:window-width="777"
     inkscape:window-height="1008"
     id="namedview24"
     showgrid="false"
     inkscape:zoom="0.15911111"
     inkscape:cx="4409.0688"
     inkscape:cy="1494.4271"
     inkscape:window-x="3018"
     inkscape:window-y="0"
     inkscape:window-maximized="0"
     inkscape:current-layer="svg22" />
  <path
     style="fill:none;stroke:#000000;stroke-width:0.98166275px;stroke-linecap:butt;stroke-linejoin:miter;stroke-opacity:1"
     d="m 1.5712291,476.53207 32.9958099,-1.51414 18.854749,20.4408 51.064942,-0.75706 25.92528,-1.51414 27.49651,-6.05654 42.42318,8.32774 73.06216,6.05653 120.19902,-2.2712 60.49232,-3.02826 47.92248,23.46906 v 82.52027 H 0 v 320.23921 l 120.19902,1.51412 90.34567,-0.75705 55.77863,-2.2712 53.42179,-11.35601 34.56704,12.11306 41.63757,-1.51413 28.28212,-3.78533 22.78283,-10.59893 44.78002,-2.27121 25.13967,15.89841 144.55307,3.02827 128.84078,2.2712 48.70811,2.2712 44.78002,11.35599 18.06914,-5.29946 15.71229,4.5424 v 91.60503 H 0 v 305.8549 l 46.351257,-6.0565 21.211592,4.5424 25.139665,-5.2994 36.923886,8.3277 28.28212,-4.5424 h 34.56704 l 44.78003,15.1414 47.92248,3.7852 16.49791,12.8702 23.56843,1.5141 44.78003,2.2713 43.99442,9.0847 48.7081,0.7571 100.55866,-4.5424 62.06354,-5.2994 72.27654,2.2711 32.99581,-8.3276 57.34986,12.113 74.63338,-6.0565 26.71089,-13.6273 110.77166,-21.1978 71.4909,4.5424 42.4232,5.2995 37.7095,6.8135 17.2835,-4.5424 25.1397,4.5424 -7.0705,69.6502 H 1.5712291 v 851.7 l 36.1382679,-2.2712 80.918293,-0.7571 37.7095,2.2713 16.49791,-2.2713 43.99441,9.8418 85.63198,21.198 90.34567,10.5988 68.34847,7.5708 109.20042,-8.3278 59.7067,-4.5425 63.63478,3.7855 85.63198,-24.2263 90.34567,-43.1527 159.47972,-114.317 113.1285,-84.0344 67.5629,-32.5539 -14.9267,140.8144 -187.7619,146.1139 v 149.8992 l 178.3345,-5.2995 95.845,8.3277 105.2723,-27.2544 68.3485,-13.6272 148.4812,15.8984 39.2807,3.7854 v 76.4637 h 6740.5726 v -120.3736 l 61.278,-10.5989 84.0607,11.356 43.2088,-1.5141 41.6376,9.8418 63.6348,19.6837 51.8505,9.8419 68.3485,-14.3843 20.426,-9.0848 25.9252,6.0566 17.2836,-4.5424 24.354,12.113 34.567,2.2712 32.9959,-18.9267 48.7081,-12.113 V 2064.8579 H 8412.3604 V 873.235 H 7373.778 V 602.96219 H 1514.6648 V 1787.7715 h -175.192 V 603.71927 H 656.77374 v -92.36214 l 87.20322,-9.84187 148.48114,-0.75706 141.4106,-4.5424 18.8548,-18.1696 40.0663,1.51413 31.4246,19.68373 82.4895,-2.2712 527.1474,3.78534 92.7025,0.75706 37.7095,-21.19786 35.3526,0.75706 40.852,18.92667 52.6362,-6.8136 91.1312,3.02827 179.9058,6.81359 62.8491,-2.27119 40.852,18.92666 v 65.10774 l 527.9329,-6.05654 2393.7675,-1.51413 v -65.8648 l 125.6983,-15.14133 152.4093,-1.51413 h 93.4881 l 22.7828,-16.65547 47.9225,0.75706 23.5684,17.41254 261.6097,4.5424 135.1257,-1.51414 48.7081,15.14134 48.7081,-0.75707 69.9197,-2.2712 71.4909,0.75707 53.4218,21.95493 30.6389,-2.2712 47.9225,18.92667 72.2766,7.57066 206.6166,-3.02826 120.9846,-9.84188 120.9847,5.29948 150.8379,-36.3392 158.6942,18.92666 32.9958,5.29947 78.5614,43.90986 79.3471,60.56534 106.8436,72.6784 87.9888,58.29413 93.4881,39.36747 91.1313,12.87013 73.8478,-1.51413 152.4092,6.05654 153.9805,-19.68374 75.4189,-22.712 113.1285,0.75707 76.9903,4.54241 9.4273,22.71198 v 115.07414 h -124.1271 v 233.17657 h 124.1271 v 894.0956 h 421.875 V 91.942194 H 0.78561452 Z"
     id="path32"
     inkscape:connector-curvature="0" />
</svg>
