<?xml version="1.0" encoding="UTF-8" standalone="no"?>
<!-- Created with Inkscape (http://www.inkscape.org/) -->

<svg
   xmlns:dc="http://purl.org/dc/elements/1.1/"
   xmlns:cc="http://creativecommons.org/ns#"
   xmlns:rdf="http://www.w3.org/1999/02/22-rdf-syntax-ns#"
   xmlns:svg="http://www.w3.org/2000/svg"
   xmlns="http://www.w3.org/2000/svg"
   xmlns:xlink="http://www.w3.org/1999/xlink"
   xmlns:sodipodi="http://sodipodi.sourceforge.net/DTD/sodipodi-0.dtd"
   xmlns:inkscape="http://www.inkscape.org/namespaces/inkscape"
   version="1.1"
   id="svg10"
   width="9000"
   height="2500"
   viewBox="0 0 9000 2500"
   sodipodi:docname="levelthree.svg"
   inkscape:version="0.92.1 r15371">
  <metadata
     id="metadata16">
    <rdf:RDF>
      <cc:Work
         rdf:about="">
        <dc:format>image/svg+xml</dc:format>
        <dc:type
           rdf:resource="http://purl.org/dc/dcmitype/StillImage" />
      </cc:Work>
    </rdf:RDF>
  </metadata>
  <defs
     id="defs14" />
  <sodipodi:namedview
     pagecolor="#ffffff"
     bordercolor="#666666"
     borderopacity="1"
     objecttolerance="10"
     gridtolerance="10"
     guidetolerance="10"
     inkscape:pageopacity="0"
     inkscape:pageshadow="2"
     inkscape:window-width="1858"
     inkscape:window-height="1057"
     id="namedview12"
     showgrid="false"
     inkscape:zoom="0.37844444"
     inkscape:cx="1402.754"
     inkscape:cy="1332.0961"
     inkscape:window-x="54"
     inkscape:window-y="-8"
     inkscape:window-maximized="1"
     inkscape:current-layer="svg10" />
  <image
     sodipodi:absref="C:\Users\Cem Alagözlü\Desktop\Examens\Programming\Game Project\Sweet_Darkness\Resources\Images\Sprites\Levels\Level_Four\levelfour00.png"
     xlink:href="levelfour00.png"
     y="0"
     x="0"
     id="image18"
     preserveAspectRatio="none"
     height="2500"
     width="9000" />
  <path
     style="fill:none;stroke:#000000;stroke-width:0.9815619px;stroke-linecap:butt;stroke-linejoin:miter;stroke-opacity:1"
     d="M 3.9543817,479.87921 H 34.341995 l 31.048214,17.18447 51.526821,0.63647 35.01182,-12.72924 33.03001,6.36462 39.63602,7.63754 59.45403,3.81877 85.87804,-1.90938 86.53864,-5.09169 5.9454,5.72815 11.8908,4.45523 12.55141,2.54585 9.90901,8.91047 h 7.26659 v 86.55882 H -0.00922017 v 318.23093 l 206.10729017,1.90938 154.58047,-1.90938 54.16923,-0.63646 32.36942,-14.00217 43.59962,-1.27292 46.90261,18.45739 126.83526,-0.63646 179.68328,3.18232 56.15102,8.274 15.19382,3.18231 v 89.10467 H -1.991021 v 306.7746 l 19.818008,-5.0917 7.927205,5.0917 26.424012,-7.0011 17.836207,5.0917 43.599619,-5.0917 92.48404,3.8188 52.84803,20.3668 23.78161,-1.2729 34.35121,15.2751 46.90263,6.3646 85.21743,3.8188 70.68424,-1.9094 102.39304,-5.0917 97.76885,-2.5459 101.73244,3.1823 76.62963,-15.2751 70.02363,-17.1845 49.54509,-3.1823 68.0418,5.0917 65.3994,8.9105 20.4786,-3.1823 22.4604,7.0011 -5.9454,69.3743 H -1.991021 l 1.98180083,847.7673 H 33.681395 l 16.515008,-1.9094 51.526827,-2.5459 86.53864,5.7282 126.83526,34.3689 186.28928,12.7293 91.16283,-8.9105 116.26566,-4.4553 108.99905,-36.2783 115.60505,-71.2837 122.211,-92.2869 123.5323,-81.4672 33.0301,-14.6386 v 155.2967 l -204.7862,137.4757 v 144.4769 h 288.0217 l 102.3931,-29.2773 57.4723,-7.6375 69.363,5.7281 73.3266,10.1834 18.4968,-3.8188 27.0846,8.2741 v 71.2837 H 8382.348 v -116.4725 l 64.7388,-13.3657 40.9572,11.4563 h 27.7452 l 48.8844,1.9094 106.3566,27.3678 84.5569,16.548 16.5151,-15.9115 45.5813,-8.9104 97.7688,17.8208 48.8845,-22.9125 36.9936,-13.3657 V 2095.856 H 8414.7173 V 875.7585 H 7373.6113 V 604.62574 H 1514.0867 V 1787.1719 h -177.0409 l 5.2848,-95.4693"
     id="path20"
     inkscape:connector-curvature="0" />
</svg>
