<?xml version="1.0" encoding="UTF-8" standalone="no"?>
<!-- Created with Inkscape (http://www.inkscape.org/) -->

<svg
   xmlns:dc="http://purl.org/dc/elements/1.1/"
   xmlns:cc="http://creativecommons.org/ns#"
   xmlns:rdf="http://www.w3.org/1999/02/22-rdf-syntax-ns#"
   xmlns:svg="http://www.w3.org/2000/svg"
   xmlns="http://www.w3.org/2000/svg"
   xmlns:sodipodi="http://sodipodi.sourceforge.net/DTD/sodipodi-0.dtd"
   xmlns:inkscape="http://www.inkscape.org/namespaces/inkscape"
   version="1.1"
   id="svg10"
   width="9000"
   height="1000"
   viewBox="0 0 9000 1000"
   sodipodi:docname="leveltwo02.svg"
   inkscape:version="0.92.1 r15371">
  <metadata
     id="metadata16">
    <rdf:RDF>
      <cc:Work
         rdf:about="">
        <dc:format>image/svg+xml</dc:format>
        <dc:type
           rdf:resource="http://purl.org/dc/dcmitype/StillImage" />
        <dc:title></dc:title>
      </cc:Work>
    </rdf:RDF>
  </metadata>
  <defs
     id="defs14" />
  <sodipodi:namedview
     pagecolor="#ffffff"
     bordercolor="#666666"
     borderopacity="1"
     objecttolerance="10"
     gridtolerance="10"
     guidetolerance="10"
     inkscape:pageopacity="0"
     inkscape:pageshadow="2"
     inkscape:window-width="1858"
     inkscape:window-height="1057"
     id="namedview12"
     showgrid="false"
     inkscape:zoom="1.0704025"
     inkscape:cx="8492.9816"
     inkscape:cy="383.46996"
     inkscape:window-x="54"
     inkscape:window-y="-8"
     inkscape:window-maximized="1"
     inkscape:current-layer="svg10" />
  <path
     style="fill:none;stroke:#000000;stroke-width:1px;stroke-linecap:butt;stroke-linejoin:miter;stroke-opacity:1"
     d="M -50.20552,56.664708 H -1.3211979 V 707.11953 l 28.8809239,-0.93423 22.888585,17.75033 214.872439,4.67114 93.88991,2.33557 37.83623,11.21074 31.29664,0.93422 v 257.3798 H 674.04549 V 741.21885 l 57.92214,-6.07248 204.59593,-10.74363 87.35034,-0.46711 v 276.99857 h 248.9717 V 725.80409 l 208.3329,3.26979 101.8308,9.8094 40.1718,3.2698 V 1000 h 198.0564 V 743.0873 h 117.7127 v 260.6496 H 2184.225 V 742.62019 h 117.7128 v 257.84691 h 201.3261 V 721.60006 l 118.1798,6.07248 120.5154,1.40134 93.4228,12.61208 9.8094,-2.33557 68.6658,24.28993 23.3557,0.93423 15.8819,9.80939 47.6456,19.61879 12.6121,-2.33557 18.6845,11.21073 19.1517,7.47383 97.6268,31.76375 13.5463,-4.20403 14.0135,12.14497 107.9033,34.09932 21.0201,13.54631 32.698,9.80939 21.4872,3.2698 27.0927,13.5463 56.9879,5.60537 60.7248,-1.86845 62.5933,-3.73692 32.2308,2.80269 11.2108,-0.93423 9.8093,-7.94094 10.2766,9.8094 h 21.4872 l 10.2765,-2.33557 10.7436,0.93422 v 75.6725 h 136.3973 v -96.22551 l 19.6188,-1.40134 h 25.6913 l 30.3624,-11.21074 94.8241,0.46711 111.1732,-0.93422 47.1785,-12.14497 25.6912,-7.94094 15.8819,-16.8161 h 26.1584 l 36.902,-20.0859 53.251,-15.88188 71.9355,-33.16509 v -10.27651 h 18.2175 l 80.3436,-31.76375 67.7315,-25.69127 114.443,-48.11274 113.5087,-51.84965 97.1597,-35.03355 190.5825,5.13825 95.2912,7.47382 29.8953,0.46712 v 405.45496 h 353.6053 V 596.41351 l 188.7141,4.20403 85.949,8.40805 21.4872,6.07248 12.145,-4.20403 11.2107,2.33557 v 390.04019 h 302.2227 V 617.90075 l 45.7772,1.40135 29.4282,-10.27651 33.1651,-2.33557 43.4416,-1.40134 52.7839,2.80268 45.31,0.46711 69.1329,-0.93422 v 356.87509 l 28.494,2.80268 28.4939,-8.40805 24.2899,7.94094 37.8363,-0.93423 5.6053,-3.73691 19.1517,4.67114 102.7651,-0.46712 9.8094,-8.87516 16.8161,8.40805 28.4939,-2.80269 h 31.7638 l 22.8886,1.86846 16.349,-3.73691 21.0201,7.47382 44.8429,-5.13825 24.7571,6.07248 22.8886,-5.13825 36.902,7.94093 29.8953,-7.94093 h 47.1785 l 59.3235,1.86845 7.9409,-7.00671 15.4148,11.21074 40.1718,-5.13826 81.7449,0.46712 49.047,-0.46712 15.4147,-5.60536 31.7638,9.34228 19.6188,-3.2698 33.6322,1.40134 33.1651,2.80268 19.6188,-10.2765 18.6845,8.40805 57.9222,-0.46712 86.4161,-0.46711 60.2577,-2.33557 95.2912,0.46711 39.2376,5.13826 32.2309,-7.00671 12.612,6.53959 40.639,-0.93422 16.8161,-5.13826 34.5664,5.60537 29.4282,-6.5396 38.7704,3.73692 52.7839,-1.40135 22.8886,-7.47382 7.4738,8.40805 27.5598,0.46712 64.4617,-1.40135 16.349,0.93423 -11.6779,-609.58376 h 169.0953 v 222.34626 l 44.8429,7.00671 13.5463,-4.67114 27.5598,6.5396 25.6912,1.40134 25.2242,14.94765 33.6322,2.80268 21.0201,10.27651 47.1785,9.34228 37.8363,-13.54631 18.6845,0.93423 28.9611,-12.61208 15.8819,8.40806 30.3624,-5.13826 23.3557,13.07919 27.5597,1.40135 23.8228,-10.27651 35.5007,-18.68456 17.2832,-7.00671 11.6779,4.67114 13.0791,-5.60537 30.3625,5.13825 19.1516,-0.93422 V -0.0910593 h 50.4483 V 1014.0134 H -13.079192 Z"
     id="path26"
     inkscape:connector-curvature="0" />
</svg>
